<svg width="15" height="15" viewBox="0 0 15 15" fill="none" xmlns="http://www.w3.org/2000/svg">
<path d="M12.3125 9.5C12.0664 9.5 11.875 9.71875 11.875 9.9375V13C11.875 13.4922 11.4648 13.875 11 13.875H2.25C1.75781 13.875 1.375 13.4922 1.375 13V4.25C1.375 3.78516 1.75781 3.375 2.25 3.375H5.3125C5.53125 3.375 5.75 3.18359 5.75 2.9375C5.75 2.71875 5.53125 2.5 5.3125 2.5H2.22266C1.26562 2.5 0.5 3.29297 0.5 4.25V13C0.5 13.9844 1.26562 14.75 2.22266 14.75H10.9453C11.9023 14.75 12.668 13.9844 12.668 13L12.75 9.9375C12.75 9.71875 12.5312 9.5 12.3125 9.5ZM14.0898 1.92578L13.3242 1.16016C13.0781 0.886719 12.75 0.75 12.3945 0.75C12.0664 0.75 11.7383 0.886719 11.4648 1.16016L4.92969 7.69531C4.68359 7.94141 4.51953 8.24219 4.4375 8.59766L4 10.8672C3.94531 11.0859 4.10938 11.2773 4.30078 11.2773C4.32812 11.2773 4.35547 11.25 4.38281 11.25L6.65234 10.8125C7.00781 10.7305 7.30859 10.5664 7.55469 10.3203L14.0898 3.78516C14.6094 3.26562 14.6094 2.41797 14.0898 1.92578ZM6.92578 9.69141C6.81641 9.80078 6.65234 9.88281 6.48828 9.91016L5.01172 10.2109L5.3125 8.76172C5.33984 8.59766 5.42188 8.43359 5.55859 8.32422L10.4258 3.42969L11.8203 4.82422L6.92578 9.69141ZM13.4883 3.15625L12.4219 4.22266L11.0273 2.82812L12.0938 1.76172C12.2031 1.65234 12.3398 1.65234 12.3945 1.65234C12.4766 1.65234 12.6133 1.65234 12.7227 1.76172L13.4883 2.52734C13.5977 2.63672 13.625 2.77344 13.625 2.85547C13.625 2.91016 13.5977 3.04688 13.4883 3.15625Z" fill="#898693"/>
</svg>
