<svg width="19" height="19" viewBox="0 0 19 19" fill="none" xmlns="http://www.w3.org/2000/svg">
<path d="M17.4023 2.00781C18.1758 2.78125 18.1758 4.01172 17.3672 4.78516L9.73828 12.4141C9.49219 12.6602 9.17578 12.8359 8.82422 12.9414C7.62891 13.2227 5.02734 13.75 5.02734 13.75C4.99219 13.75 4.99219 13.75 4.95703 13.75C4.67578 13.75 4.42969 13.5039 4.5 13.1875L5.34375 9.39062C5.41406 9.03906 5.58984 8.6875 5.87109 8.44141L13.4648 0.847656C13.8516 0.460938 14.3438 0.25 14.8711 0.25C15.3633 0.25 15.8555 0.460938 16.2422 0.847656L17.4023 2.00781ZM16.207 3.58984C16.3125 3.48438 16.3125 3.30859 16.207 3.20312L15.0469 2.04297C14.9766 1.97266 14.9062 1.9375 14.8711 1.9375C14.8008 1.9375 14.7305 1.97266 14.6602 2.04297L7.06641 9.63672C7.03125 9.67188 6.99609 9.70703 6.99609 9.77734L6.53906 11.7109C7.24219 11.5703 7.98047 11.3945 8.47266 11.2891C8.50781 11.2891 8.54297 11.2539 8.57812 11.2188L16.207 3.58984ZM14.9062 10.375C15.3633 10.375 15.75 10.7617 15.75 11.2188L15.6445 15.7188C15.6445 17.125 14.5195 18.25 13.1484 18.25H2.49609C1.125 18.25 0 17.125 0 15.7188V5.03125C0 3.66016 1.125 2.5 2.49609 2.5H7.59375C8.05078 2.5 8.4375 2.88672 8.4375 3.34375C8.4375 3.83594 8.05078 4.1875 7.59375 4.1875H2.53125C2.03906 4.1875 1.6875 4.57422 1.6875 5.03125V15.7188C1.6875 16.2109 2.03906 16.5625 2.53125 16.5625H13.2188C13.6758 16.5625 14.0625 16.2109 14.0625 15.7188V11.2188C14.0625 10.7617 14.4141 10.375 14.9062 10.375Z" fill="#868390"/>
</svg>
